<?xml version="1.0" encoding="UTF-8"?>
<!-- Created with Inkscape (http://www.inkscape.org/) -->
<svg width="108mm" height="108mm" version="1.1" viewBox="0 0 108 108" xml:space="preserve" xmlns="http://www.w3.org/2000/svg" xmlns:xlink="http://www.w3.org/1999/xlink"><defs><linearGradient id="linearGradient7129" x1="26.49" x2="118.16" y1="126.02" y2="32.103" gradientUnits="userSpaceOnUse"><stop stop-color="#359eff" offset="0"/><stop stop-color="#a8d6ff" offset="1"/></linearGradient></defs><g transform="translate(-22 -22)"><rect x="22" y="22" width="108" height="108" fill="url(#linearGradient7129)"/><g fill="#fff"><path d="m175.14 100.69c-7.2941 0.15634-14.369 4.1311-18.28 10.293-3.9944 6.0732-4.7294 14.117-1.9094 20.816 2.855 7.0372 9.4892 12.381 16.992 13.608 7.0792 1.2766 14.681-1.1317 19.74-6.2435 5.1947-5.1049 7.6135-12.83 6.2565-19.986-1.3109-7.598-6.8534-14.265-14.061-16.987-2.7723-1.0829-5.7645-1.5767-8.7375-1.5009zm0.63086 3.2285c6.2294-0.0506 12.358 3.1563 15.867 8.3023 3.0325 4.3028 4.129 9.9803 2.9822 15.051-0.48019 2.1765-1.347 4.265-2.5312 6.1523-4.8574 2.2918-10.587 2.3895-15.543 0.29964-6.0318-2.4928-10.569-8.237-11.552-14.695-0.75627-4.6118 0.23927-9.3632 2.7297-13.308 2.5239-1.1699 5.3048-1.8028 8.0469-1.8027zm-13.098 5.4609c-1.2373 3.4775-1.4836 7.2723-0.74597 10.886 1.4031 7.477 6.8945 14.003 14.008 16.689 3.7882 1.4611 7.9952 1.9138 11.988 1.1142-4.3346 3.649-10.332 5.2083-15.889 4.0672-6.4254-1.2091-12.025-5.9456-14.296-12.076-2.1084-5.4547-1.5317-11.879 1.6392-16.811 0.93243-1.4792 2.0609-2.8355 3.3486-4.0187l-0.0335 0.0942z" color="#000000" style="-inkscape-stroke:none"/><path d="m174.85 49.578c-3.3561 3.05e-4 -6.6682 0.76896-9.6816 2.2461-7.5372 3.6936-12.318 11.36-12.318 19.754 8e-5 12.137 9.8628 22 22 22 7.3969-2e-4 14.302-3.7195 18.371-9.8965 2.3672-3.5926 3.6286-7.8012 3.6289-12.104-8e-5 -12.137-9.8626-22-22-22zm0 2.1797c10.959-2.1e-4 19.82 8.861 19.82 19.82-2.8e-4 3.7752-1.1161 7.4526-3.1426 10.633-2.6363 1.2392-5.5023 1.9139-8.418 1.9141-10.959-6.8e-5 -19.82-8.8592-19.82-19.818 2.2e-4 -3.7757 1.1156-7.4543 3.1426-10.635 2.6357-1.2387 5.503-1.9138 8.418-1.9141zm-11.836 4.1367c-1.1207 2.6776-1.9041 5.4806-1.9043 8.4102a1.0901 1.0901 0 0 0 0 2e-3c8e-5 12.137 9.8628 21.998 22 21.998 1.9556-8.7e-5 3.8728-0.33582 5.748-0.8457-3.6839 3.7175-8.667 5.9393-14.008 5.9395-10.959-2.5e-5 -19.82-8.8611-19.82-19.82 3e-4 -6.2859 3.0834-11.982 7.9844-15.684z" color="#000000" style="-inkscape-stroke:none"/><path d="m176.1 57.188 0.32203-4.7489 0.67075 0.04548-0.32203 4.7489zm13.182 14.377 4.7488 0.32203-0.0455 0.67076-4.7488-0.32203zm-19.102-18.369-0.64053 0.2045 0.79862 2.5011c0.21231-0.0717 0.42612-0.13894 0.64127-0.20163zm12.994 0.88118-1.1257 2.3635c0.20419 0.0924 0.40641 0.18908 0.60652 0.29001l1.1262-2.3644zm6.0794 4.439-1.9723 1.7218c0.15097 0.16557 0.29842 0.33431 0.44227 0.50611l1.9723-1.7218zm3.8153 6.4892-2.4943 0.79673c0.0728 0.2119 0.14117 0.42531 0.205 0.6401l2.4938-0.79629zm-3.0497 12.504c-0.0912 0.20488-0.18665 0.40781-0.28639 0.60866l2.3703 1.129 0.2891-0.60706z" color="#000000"/><path d="m177.63 61.502s-1.2266 3.6239-2.5332 4.9304-4.9304 2.5332-4.9304 2.5332 3.6239 1.2266 4.9304 2.5332c1.3066 1.3066 2.5332 4.9304 2.5332 4.9304s1.2266-3.6239 2.5332-4.9304c1.3066-1.3065 4.9304-2.5332 4.9304-2.5332s-3.6239-1.2266-4.9304-2.5332-2.5332-4.9304-2.5332-4.9304zm0 4.3145s0.51742 1.5292 1.0687 2.0805c0.55125 0.55125 2.0805 1.0687 2.0805 1.0687s-1.5292 0.51742-2.0805 1.0687c-0.55125 0.55124-1.0687 2.0805-1.0687 2.0805s-0.51742-1.5292-1.0687-2.0805c-0.55125-0.55125-2.0805-1.0687-2.0805-1.0687s1.5292-0.51742 2.0805-1.0687c0.55125-0.55125 1.0687-2.0805 1.0687-2.0805z"/></g><g fill="#fff"><path d="m77.246 61.609 0.32203-4.7489 0.67075 0.04548-0.32203 4.7489zm13.182 14.377 4.7488 0.32203-0.04548 0.67076-4.7488-0.32203zm-19.102-18.369-0.64053 0.2045 0.79862 2.5011c0.21232-0.0717 0.42612-0.13894 0.64127-0.20163zm12.994 0.88118-1.1257 2.3635c0.20419 0.0924 0.40641 0.18908 0.60652 0.29001l1.1262-2.3644zm6.0794 4.439-1.9723 1.7218c0.15096 0.16557 0.29842 0.33431 0.44226 0.5061l1.9723-1.7218zm3.8153 6.4892-2.4943 0.79673c0.07283 0.2119 0.14118 0.42531 0.205 0.6401l2.4938-0.79629zm-3.0497 12.504c-0.09117 0.20488-0.18665 0.40781-0.28638 0.60865l2.3703 1.129 0.2891-0.60706z" color="#000000"/><path d="m78.778 65.923s-1.2266 3.6239-2.5332 4.9304c-1.3065 1.3065-4.9304 2.5332-4.9304 2.5332s3.6239 1.2266 4.9304 2.5332c1.3065 1.3066 2.5332 4.9304 2.5332 4.9304s1.2266-3.6239 2.5332-4.9304c1.3065-1.3065 4.9304-2.5332 4.9304-2.5332s-3.6239-1.2266-4.9304-2.5332c-1.3065-1.3065-2.5332-4.9304-2.5332-4.9304zm0 4.3145s0.51742 1.5292 1.0687 2.0805c0.55125 0.55125 2.0805 1.0687 2.0805 1.0687s-1.5292 0.51742-2.0805 1.0687c-0.55125 0.55124-1.0687 2.0805-1.0687 2.0805s-0.51742-1.5292-1.0687-2.0805c-0.55125-0.55125-2.0805-1.0687-2.0805-1.0687s1.5292-0.51742 2.0805-1.0687c0.55125-0.55125 1.0687-2.0805 1.0687-2.0805z"/><path d="m66.318 56.246c-7.5371 3.6936-12.318 11.36-12.318 19.754 8e-5 12.137 9.8626 22 22 22 7.3968-2e-4 14.302-3.7197 18.371-9.8966 0.82368-1.2501 1.5094-2.576 2.0569-3.9538-1.9984 1.5652-2.1699 1.632-3.7504 2.4831-2.6363 1.2392-5.5024 1.914-8.4181 1.9141-10.959-6.8e-5 -19.82-8.8594-19.82-19.818 2.2e-4 -3.7756 1.116-7.454 3.143-10.634 1.918-2.491 1.9399-2.522 3.0455-3.5871-3.2651 1.2158-3.2778 1.2301-4.3095 1.7392z" color="#000000" fill-opacity=".5"/><path d="m65.041 63.952a16.292 16.292 0 0 0-5.333 12.048 16.292 16.292 0 0 0 16.292 16.292 16.292 16.292 0 0 0 10.559-3.8861c-0.7606 0.092311-1.5277 0.14104-2.2986 0.14108-10.959-6.8e-5 -19.82-8.8594-19.82-19.818 9.4e-5 -1.6207 0.207-3.2233 0.60203-4.7765z" color="#000000"/></g></g></svg>
